<svg id="Grupo_48" data-name="Grupo 48" xmlns="http://www.w3.org/2000/svg" width="64.612" height="69.971" viewBox="0 0 64.612 69.971">
  <path id="Trazado_52" data-name="Trazado 52" d="M1169.3,13.7h-4.828a1.4,1.4,0,0,0,0,2.8h1.469l-10.566,10.566h-31.7L1112.976,16.5h34.286a1.4,1.4,0,0,0,0-2.8h-37.645a1.382,1.382,0,0,0-1.26.84,1.554,1.554,0,0,0,.28,1.539L1122,29.444h0l16.024,16.023V71.287H1126.97a1.4,1.4,0,0,0,0,2.8h24.91a1.4,1.4,0,0,0,0-2.8h-11.056V45.537l16.023-16.023h0l13.365-13.365a1.387,1.387,0,0,0,.28-1.539A1.2,1.2,0,0,0,1169.3,13.7ZM1152.51,29.863l-13.085,13.085L1126.34,29.863Z" transform="translate(-1108.259 -4.114)" fill="#1b365d"/>
  <path id="Trazado_53" data-name="Trazado 53" d="M1185.478,5.528h-8.606a6.931,6.931,0,0,0-13.574,0h-7a1.4,1.4,0,0,0,0,2.8h7a6.931,6.931,0,0,0,13.574,0h8.606a1.4,1.4,0,0,0,0-2.8Zm-15.394,5.528a4.083,4.083,0,0,1-3.848-2.729h3.848a1.4,1.4,0,0,0,0-2.8h-3.848a4.083,4.083,0,0,1,3.848-2.729,4.136,4.136,0,0,1,4.128,4.128A4.182,4.182,0,0,1,1170.084,11.055Z" transform="translate(-1122.265)" fill="#1b365d"/>
</svg>
