<svg id="Grupo_47" data-name="Grupo 47" xmlns="http://www.w3.org/2000/svg" width="70.181" height="47.683" viewBox="0 0 70.181 47.683">
  <path id="Trazado_46" data-name="Trazado 46" d="M1.4,64.1c3.359,0,5.178-1.749,6.577-3.219,1.329-1.329,2.379-2.379,4.618-2.379s3.289,1.05,4.618,2.379h0a1.385,1.385,0,0,0,1.959-1.959c-1.4-1.4-3.219-3.219-6.577-3.219s-5.178,1.749-6.577,3.219C4.688,60.248,3.639,61.3,1.4,61.3a1.4,1.4,0,1,0,0,2.8Z" transform="translate(0.21 -39.014)" fill="#1b365d"/>
  <path id="Trazado_47" data-name="Trazado 47" d="M84.24,59.173A7.686,7.686,0,0,1,86.759,61.2c1.4,1.4,3.219,3.219,6.577,3.219a1.4,1.4,0,0,0,0-2.8c-2.239,0-3.289-1.05-4.618-2.379a11.053,11.053,0,0,0-3.429-2.589,1.389,1.389,0,0,0-1.819.7A1.518,1.518,0,0,0,84.24,59.173Z" transform="translate(-24.835 -39.268)" fill="#1b365d"/>
  <path id="Trazado_48" data-name="Trazado 48" d="M68.272,77.8c-2.239,0-3.289-1.05-4.618-2.379-1.4-1.4-3.219-3.219-6.577-3.219S51.9,73.949,50.5,75.419C49.17,76.748,48.12,77.8,45.881,77.8s-3.289-1.05-4.618-2.379c-1.4-1.4-3.219-3.219-6.577-3.219s-5.178,1.749-6.577,3.219C26.779,76.748,25.729,77.8,23.49,77.8s-3.289-1.05-4.618-2.379c-1.4-1.4-3.219-3.219-6.577-3.219s-5.178,1.749-6.577,3.219C4.388,76.748,3.339,77.8,1.1,77.8a1.4,1.4,0,0,0,0,2.8c3.359,0,5.178-1.749,6.577-3.219C9.006,76.048,10.056,75,12.295,75s3.289,1.05,4.618,2.379c1.4,1.4,3.219,3.219,6.577,3.219s5.178-1.749,6.577-3.219C31.4,76.048,32.447,75,34.686,75s3.289,1.05,4.618,2.379c1.4,1.4,3.219,3.219,6.577,3.219s5.178-1.749,6.577-3.219C53.788,76.048,54.838,75,57.077,75s3.289,1.05,4.618,2.379c1.4,1.4,3.219,3.219,6.577,3.219a1.4,1.4,0,0,0,0-2.8Z" transform="translate(0.3 -43.969)" fill="#1b365d"/>
  <path id="Trazado_49" data-name="Trazado 49" d="M68.362,93.6c-2.239,0-3.289-1.05-4.618-2.379-1.4-1.4-3.219-3.219-6.577-3.219s-5.178,1.749-6.577,3.219C49.33,92.548,48.28,93.6,46.041,93.6s-3.289-1.05-4.618-2.379C40.024,89.819,38.2,88,34.846,88s-5.178,1.749-6.577,3.219C26.939,92.548,25.889,93.6,23.65,93.6s-3.289-1.05-4.618-2.379c-1.4-1.4-3.219-3.219-6.577-3.219s-5.178,1.749-6.577,3.219C4.688,92.548,3.639,93.6,1.4,93.6a1.4,1.4,0,0,0,0,2.8c3.359,0,5.178-1.749,6.577-3.219,1.329-1.329,2.379-2.379,4.618-2.379s3.289,1.05,4.618,2.379c1.4,1.4,3.219,3.219,6.577,3.219s5.178-1.749,6.577-3.219C31.7,91.848,32.747,90.8,34.986,90.8s3.289,1.05,4.618,2.379c1.4,1.4,3.219,3.219,6.577,3.219s5.178-1.749,6.577-3.219c1.329-1.329,2.379-2.379,4.618-2.379s3.289,1.05,4.618,2.379c1.4,1.4,3.219,3.219,6.577,3.219a1.4,1.4,0,0,0,1.4-1.4A1.6,1.6,0,0,0,68.362,93.6Z" transform="translate(0.21 -48.713)" fill="#1b365d"/>
  <path id="Trazado_50" data-name="Trazado 50" d="M27,56.866a1.461,1.461,0,0,0,1.12.56,1.345,1.345,0,0,0,.84-.28L59.534,34.825A1.05,1.05,0,1,1,60.793,36.5L42.531,49.8a1.4,1.4,0,0,0,1.679,2.239l3.708-2.589,7.347,9.376a1.461,1.461,0,0,0,1.12.56,1.222,1.222,0,0,0,.84-.28,1.359,1.359,0,0,0,.21-1.959L50.158,47.77l12.315-8.956a3.823,3.823,0,0,0,.84-5.388,3.885,3.885,0,0,0-5.388-.84L27.347,54.907A1.434,1.434,0,0,0,27,56.866Z" transform="translate(-7.825 -31.853)" fill="#1b365d"/>
  <path id="Trazado_51" data-name="Trazado 51" d="M75.523,49.9a5.425,5.425,0,0,0-3.918-1.4A5.007,5.007,0,0,0,67.9,50.316a5.32,5.32,0,0,0-1.4,3.918,5.007,5.007,0,0,0,1.819,3.708,5.208,5.208,0,0,0,3.569,1.4h.35a5.007,5.007,0,0,0,3.708-1.819,5.32,5.32,0,0,0,1.4-3.918A5.256,5.256,0,0,0,75.523,49.9ZM73.914,55.7a2.692,2.692,0,0,1-1.819.91,2.588,2.588,0,0,1-1.889-.63,2.692,2.692,0,0,1-.91-1.819,2.654,2.654,0,0,1,2.449-2.8h.14a2.667,2.667,0,0,1,2.659,2.449A2.588,2.588,0,0,1,73.914,55.7Z" transform="translate(-19.756 -36.849)" fill="#1b365d"/>
</svg>
