<svg xmlns="http://www.w3.org/2000/svg" width="63.683" height="64.654" viewBox="0 0 63.683 64.654">
  <path id="Trazado_45" data-name="Trazado 45" d="M287.572,38.487,258.533,21.554V20.295a6.374,6.374,0,1,0-7.767-6.227,1.4,1.4,0,1,0,2.8,0,3.569,3.569,0,1,1,3.569,3.569,1.4,1.4,0,0,0-1.4,1.4v2.519L226.7,38.487a2.866,2.866,0,0,0-1.329,3.149,2.835,2.835,0,0,0,2.729,2.1h5.458v24.14a4.51,4.51,0,0,0,4.478,4.478h32.047a4.51,4.51,0,0,0,4.478-4.478V63.887h1.679a4.51,4.51,0,0,0,4.478-4.478V43.735h5.458a2.775,2.775,0,0,0,2.729-2.1A2.925,2.925,0,0,0,287.572,38.487ZM271.758,67.805a1.7,1.7,0,0,1-1.679,1.679H238.032a1.7,1.7,0,0,1-1.679-1.679V42.336h0v-.56a1.7,1.7,0,0,1,1.679-1.679h34.006a4.228,4.228,0,0,0-.35,1.679V67.805Zm6.087-8.4a1.7,1.7,0,0,1-1.679,1.679h-1.679V43.735h3.289V59.409Zm-3.079-18.472a1.68,1.68,0,0,1,1.4-.84,1.592,1.592,0,0,1,1.4.84Zm5.808,0a4.491,4.491,0,0,0-4.338-3.639H238.1a4.368,4.368,0,0,0-4.338,3.639l-5.6-.07L257.2,23.933l29.038,17Z" transform="translate(-225.29 -7.7)" fill="#1b365d"/>
</svg>
