<svg id="Grupo_51" data-name="Grupo 51" xmlns="http://www.w3.org/2000/svg" width="69.972" height="64.724" viewBox="0 0 69.972 64.724">
  <g id="Grupo_49" data-name="Grupo 49" transform="translate(22.111 0)">
    <path id="Trazado_55" data-name="Trazado 55" d="M917.409,34.382a1.353,1.353,0,0,0,0,1.959,1.353,1.353,0,0,0,1.959,0,7.855,7.855,0,0,0,0-11.125,4.973,4.973,0,0,1-1.469-3.569,5.147,5.147,0,0,1,1.469-3.569,1.385,1.385,0,0,0-1.959-1.959,7.946,7.946,0,0,0-2.309,5.6,8.07,8.07,0,0,0,2.309,5.6A4.863,4.863,0,0,1,917.409,34.382Z" transform="translate(-915.1 -9.962)" fill="#1b365d"/>
    <path id="Trazado_56" data-name="Trazado 56" d="M931.009,30.382a1.353,1.353,0,0,0,0,1.959,1.353,1.353,0,0,0,1.959,0,7.855,7.855,0,0,0,0-11.125,4.973,4.973,0,0,1-1.469-3.569,5.147,5.147,0,0,1,1.469-3.569,1.385,1.385,0,1,0-1.959-1.959,7.946,7.946,0,0,0-2.309,5.6,8.07,8.07,0,0,0,2.309,5.6A4.862,4.862,0,0,1,931.009,30.382Z" transform="translate(-919.184 -8.761)" fill="#1b365d"/>
    <path id="Trazado_57" data-name="Trazado 57" d="M944.609,26.182a1.353,1.353,0,0,0,0,1.959,1.353,1.353,0,0,0,1.959,0,7.855,7.855,0,0,0,0-11.125,4.972,4.972,0,0,1-1.469-3.569,5.147,5.147,0,0,1,1.469-3.569,1.385,1.385,0,0,0-1.959-1.959,7.946,7.946,0,0,0-2.309,5.6,8.07,8.07,0,0,0,2.309,5.6A4.863,4.863,0,0,1,944.609,26.182Z" transform="translate(-923.268 -7.5)" fill="#1b365d"/>
  </g>
  <g id="Grupo_50" data-name="Grupo 50" transform="translate(0 22.352)">
    <path id="Trazado_58" data-name="Trazado 58" d="M945.985,40.113l-25.26,6.717h-33.1a4.092,4.092,0,0,0-4.128,4.128,4.168,4.168,0,0,0,4.058,4.128v3.079a16.841,16.841,0,0,0,7.557,14.064H884.9a1.4,1.4,0,1,0,0,2.8h67.173a1.4,1.4,0,1,0,0-2.8H940.807a16.841,16.841,0,0,0,7.557-14.064V48.09l2.029-.56a4.292,4.292,0,0,0,2.519-1.889,4.12,4.12,0,0,0-4.128-6.157ZM886.3,50.959a1.376,1.376,0,0,1,1.329-1.329h33.167a1.541,1.541,0,0,0,.56-.07h.07l27.639-7.277a1.26,1.26,0,0,1,1.609.98,1.19,1.19,0,0,1-.14.98,1.5,1.5,0,0,1-.84.63l-27.709,7.347a6.893,6.893,0,0,1-1.19.14H887.628A1.437,1.437,0,0,1,886.3,50.959ZM904.422,72.23a14.065,14.065,0,0,1-14.064-14.064V55.087h30.368a8.066,8.066,0,0,0,1.819-.21l22.951-6.088v9.376A14.065,14.065,0,0,1,931.431,72.23Z" transform="translate(-883.5 -39.445)" fill="#1b365d"/>
  </g>
  <path id="Trazado_59" data-name="Trazado 59" d="M902.7,98.8h42.4a1.4,1.4,0,0,0,1.4-1.4h0a1.4,1.4,0,0,0-1.4-1.4H902.7a1.4,1.4,0,0,0-1.4,1.4h0A1.4,1.4,0,0,0,902.7,98.8Z" transform="translate(-888.845 -34.075)" fill="#1b365d"/>
</svg>
