<svg id="Grupo_46" data-name="Grupo 46" xmlns="http://www.w3.org/2000/svg" width="69.971" height="64.304" viewBox="0 0 69.971 64.304">
  <path id="Trazado_41" data-name="Trazado 41" d="M702.81,20.5a23.51,23.51,0,1,0,23.51,23.51A23.561,23.561,0,0,0,702.81,20.5Zm0,44.222A20.712,20.712,0,1,1,723.522,44.01,20.754,20.754,0,0,1,702.81,64.722Z" transform="translate(-667.615 -11.824)" fill="#1b365d"/>
  <path id="Trazado_42" data-name="Trazado 42" d="M706.2,31.8a15.6,15.6,0,1,0,15.6,15.6A15.618,15.618,0,0,0,706.2,31.8Zm0,28.478a12.8,12.8,0,1,1,12.8-12.8A12.811,12.811,0,0,1,706.2,60.278Z" transform="translate(-671.008 -15.217)" fill="#1b365d"/>
  <path id="Trazado_43" data-name="Trazado 43" d="M662.6,69.544V77.31a1.4,1.4,0,0,0,2.8,0V69.544a3.161,3.161,0,0,1,1.819-2.869V77.31a1.4,1.4,0,0,0,2.8,0V66.675a3.2,3.2,0,0,1,1.819,2.869V77.31a1.4,1.4,0,0,0,2.8,0V69.544a5.992,5.992,0,0,0-4.618-5.808V30.5a1.4,1.4,0,0,0-2.8,0V63.736A5.992,5.992,0,0,0,662.6,69.544Z" transform="translate(-662.6 -14.406)" fill="#1b365d"/>
  <path id="Trazado_44" data-name="Trazado 44" d="M757.675,16.147c0-4.548-2.519-8.047-5.738-8.047s-5.738,3.569-5.738,8.047c0,3.848,1.819,7,4.338,7.837V55.611a1.4,1.4,0,0,0,2.8,0V23.984C755.856,23.144,757.675,20,757.675,16.147Zm-5.738,5.318c-1.4,0-2.939-2.169-2.939-5.248s1.539-5.248,2.939-5.248,2.939,2.169,2.939,5.248S753.267,21.465,751.938,21.465Z" transform="translate(-687.704 -8.1)" fill="#1b365d"/>
</svg>
