<svg xmlns="http://www.w3.org/2000/svg" width="69.489" height="64.934" viewBox="0 0 69.489 64.934">
  <path id="Trazado_54" data-name="Trazado 54" d="M507.113,54.851h-8.677l7.977-7.907A4.19,4.19,0,0,0,507.673,44a3.917,3.917,0,0,0-1.259-2.939,4.19,4.19,0,0,0-2.939-1.259,3.917,3.917,0,0,0-2.939,1.259L486.682,54.921h-1.4V34.7a51.354,51.354,0,0,1,11.335,1.469c.14,0,.21.07.35.07a.887.887,0,0,0,.42-.07c.07,0,.07-.07.14-.07.07-.07.14-.07.21-.14a6.778,6.778,0,0,1,7.487-.21l.42.28a1.271,1.271,0,0,0,1.4,0,1.443,1.443,0,0,0,.7-1.19,23.922,23.922,0,0,0-22.531-23.86V8.6a1.4,1.4,0,1,0-2.8,0v2.309a23.924,23.924,0,0,0-22.531,23.86,1.354,1.354,0,0,0,.7,1.19,1.425,1.425,0,0,0,1.4,0l.42-.28a6.912,6.912,0,0,1,7.487.21h.07c.07.07.14.07.28.14.07,0,.07,0,.14.07.14,0,.21.07.35.07h0a.631.631,0,0,0,.35-.07,55.887,55.887,0,0,1,11.335-1.469V54.851H446.308a4.408,4.408,0,0,0,0,8.816h.49v3.988a4.408,4.408,0,0,0,8.816,0V63.737h42.053v3.988a4.408,4.408,0,0,0,8.816,0V63.737h.49a4.39,4.39,0,0,0,4.408-4.408A4.248,4.248,0,0,0,507.113,54.851Zm-21.9-41c.07,0,.21.07.28.07s.14.07.21.07c.14,0,.21.07.35.14.07,0,.14.07.21.07.07.07.21.07.28.14s.14.07.21.14.21.07.28.14.14.07.21.14.21.14.28.21.14.14.21.14c.07.07.21.14.28.21l.21.21c.07.07.21.14.28.21l.21.21a.966.966,0,0,0,.28.21l.21.21.28.28a.965.965,0,0,1,.21.28c.07.07.14.21.28.28a.966.966,0,0,1,.21.28c.07.07.14.21.21.28s.14.21.21.28c.07.14.14.21.21.35.07.07.14.21.21.28.07.14.14.21.21.35.07.07.14.21.21.28l.21.42a.531.531,0,0,1,.14.28l.21.42c.07.07.07.21.14.28.07.21.21.35.28.56,0,.07.07.14.07.21.14.28.21.49.35.77,0,.07.07.14.07.21.07.21.14.35.21.56.07.07.07.21.14.28a4.82,4.82,0,0,1,.21.56c.07.14.07.21.14.35a1.3,1.3,0,0,1,.14.49c.07.14.07.28.14.35.07.14.07.35.14.49a.887.887,0,0,1,.07.42c.07.14.07.35.14.49,0,.14.07.28.07.42.07.14.07.35.14.49,0,.14.07.28.07.42,0,.21.07.35.07.56,0,.14.07.28.07.42,0,.21.07.35.07.56,0,.14.07.28.07.42,0,.21.07.35.07.56,0,.14.07.28.07.42,0,.21.07.35.07.56a.888.888,0,0,0,.07.42,1.541,1.541,0,0,0,.07.56v.63a55.682,55.682,0,0,0-10.216-1.12V13.847ZM504.8,32.46a9.658,9.658,0,0,0-6.577.07v-.07c0-.28-.07-.49-.07-.77a1.191,1.191,0,0,0-.07-.49c0-.35-.07-.7-.07-.98v-.21c-.07-.42-.07-.84-.14-1.19,0-.14-.07-.21-.07-.35-.07-.28-.07-.56-.14-.84,0-.14-.07-.28-.07-.42-.07-.21-.07-.49-.14-.7a1.779,1.779,0,0,0-.14-.49c-.07-.21-.07-.42-.14-.63a4.473,4.473,0,0,1-.14-.49l-.21-.63a4.473,4.473,0,0,1-.14-.49l-.21-.63a4.445,4.445,0,0,1-.14-.49,4.821,4.821,0,0,0-.21-.56.994.994,0,0,1-.14-.42c-.07-.21-.14-.35-.21-.56l-.21-.42a2.094,2.094,0,0,0-.28-.56l-.21-.42c-.07-.21-.21-.35-.28-.56a1.529,1.529,0,0,0-.21-.35,3.038,3.038,0,0,0-.28-.49c-.07-.14-.14-.21-.21-.35-.14-.21-.21-.35-.35-.56-.07-.07-.14-.21-.21-.28a3.886,3.886,0,0,0-.42-.56c-.07-.07-.07-.14-.14-.21-.21-.28-.35-.49-.56-.77h0A20.931,20.931,0,0,1,504.8,32.46ZM466.04,31.9a10.385,10.385,0,0,0-3.219.56A21.1,21.1,0,0,1,475.136,15.6h0a7.329,7.329,0,0,0-.56.77c-.07.07-.07.14-.14.21a3.881,3.881,0,0,1-.42.56c-.07.07-.14.21-.21.28a3.906,3.906,0,0,0-.35.56c-.07.14-.14.21-.21.35s-.21.35-.28.49a1.532,1.532,0,0,1-.21.35,4.155,4.155,0,0,0-.28.56l-.21.42a2.1,2.1,0,0,1-.28.56l-.21.42c-.07.21-.14.35-.21.56a1,1,0,0,0-.14.42c-.07.21-.14.35-.21.56a1.012,1.012,0,0,0-.14.49l-.21.63a4.473,4.473,0,0,0-.14.49l-.21.63a4.473,4.473,0,0,0-.14.49,2.044,2.044,0,0,0-.14.63,4.473,4.473,0,0,0-.14.49c-.07.21-.07.49-.14.7,0,.14-.07.28-.07.42-.07.28-.07.56-.14.84,0,.14-.07.21-.07.35a6.9,6.9,0,0,0-.14,1.19v.21a4.959,4.959,0,0,0-.07.98,1.19,1.19,0,0,1-.07.49c0,.28-.07.49-.07.77v.07A8.6,8.6,0,0,0,466.04,31.9Zm6.157,1.12v-.63a1.54,1.54,0,0,1,.07-.56.888.888,0,0,1,.07-.42c0-.21.07-.35.07-.56a.888.888,0,0,1,.07-.42c0-.21.07-.35.07-.56,0-.14.07-.28.07-.42,0-.21.07-.35.07-.56,0-.14.07-.28.07-.42,0-.21.07-.35.07-.56,0-.14.07-.28.07-.42.07-.14.07-.35.14-.49,0-.14.07-.28.07-.42.07-.14.07-.35.14-.49,0-.14.07-.28.07-.42.07-.14.07-.35.14-.49s.07-.28.14-.35a1.3,1.3,0,0,0,.14-.49c.07-.14.07-.21.14-.35.07-.21.14-.35.21-.56.07-.07.07-.21.14-.28a4.821,4.821,0,0,1,.21-.56c0-.07.07-.14.07-.21.14-.28.21-.49.35-.77,0-.07.07-.14.07-.21a2.1,2.1,0,0,1,.28-.56c.07-.07.07-.21.14-.28l.21-.42a.531.531,0,0,0,.14-.28l.21-.42c.07-.07.14-.21.21-.28.07-.14.14-.21.21-.35.07-.07.14-.21.21-.28.07-.14.14-.21.21-.35.07-.07.14-.21.21-.28a.967.967,0,0,1,.21-.28.965.965,0,0,0,.21-.28c.07-.07.14-.21.28-.28a.965.965,0,0,0,.21-.28c.07-.07.14-.21.28-.28l.21-.21a.966.966,0,0,1,.28-.21l.21-.21c.07-.07.21-.14.28-.21l.21-.21c.07-.07.21-.14.28-.21s.14-.14.21-.14c.07-.07.21-.14.28-.21s.14-.07.21-.14.21-.07.28-.14.14-.07.21-.14.21-.07.28-.14c.07,0,.14-.07.21-.07.07-.07.21-.07.35-.14.07,0,.14-.07.21-.07s.21-.07.28-.07V32.04A44.7,44.7,0,0,0,472.2,33.019Zm30.228,10.006a1.353,1.353,0,0,1,1.959,0,1.353,1.353,0,0,1,0,1.959l-9.936,9.936H490.53Zm-49.54,24.7a1.609,1.609,0,1,1-3.219,0V63.737h3.289v3.988Zm49.26,1.609a1.583,1.583,0,0,1-1.609-1.609V63.737h3.289v3.988A1.643,1.643,0,0,1,502.145,69.335Zm4.968-8.4H446.308a1.609,1.609,0,1,1,0-3.219h60.805a1.609,1.609,0,0,1,0,3.219Z" transform="translate(-441.9 -7.2)" fill="#1b365d"/>
</svg>
