<svg xmlns="http://www.w3.org/2000/svg" width="31.404" height="31.4" viewBox="0 0 31.404 31.4">
  <g id="Grupo_25" data-name="Grupo 25" transform="translate(0.004)">
    <g id="Grupo_21" data-name="Grupo 21">
      <g id="Grupo_20" data-name="Grupo 20">
        <g id="Grupo_19" data-name="Grupo 19">
          <g id="Grupo_18" data-name="Grupo 18">
            <path id="Trazado_13" data-name="Trazado 13" d="M30.7,23.3l-4.5-4.5-.1-.1a2.433,2.433,0,0,0-3.2,0,.1.1,0,0,0-.1.1l-2.5,2.5a1.872,1.872,0,0,1-2.6,0l-3.8-3.8-3.8-3.8a1.872,1.872,0,0,1,0-2.6l2.5-2.5.1-.1a2.271,2.271,0,0,0,.6-1.6,2.271,2.271,0,0,0-.6-1.6.1.1,0,0,0-.1-.1L8.1.7A2.478,2.478,0,0,0,4.7.7l-3,3c-3,3-2.6,11.6,5.8,20.2h0c5.5,5.4,11.1,7.5,15.1,7.5a7.124,7.124,0,0,0,5.1-1.7l3-3a2.342,2.342,0,0,0,.7-1.7A2.06,2.06,0,0,0,30.7,23.3ZM6.1,2.1a.638.638,0,0,1,.6,0l4.4,4.4.1.1a.375.375,0,0,1,0,.6l-.1.1-.5.5L5.5,2.7ZM26.3,28.3c-2,2-9.6,1.8-17.4-5.8h0C1.3,14.7,1.1,7.2,3.1,5.1l1-1L9.2,9.2l-.5.5a3.8,3.8,0,0,0,0,5.4l3.8,3.8h0l3.8,3.8A3.478,3.478,0,0,0,19,23.8a3.864,3.864,0,0,0,2.7-1.1l.5-.5,5.1,5.1Zm2.4-2.4-5.1-5.1.5-.5h.1a.375.375,0,0,1,.6,0l.1.1,4.4,4.4a.375.375,0,0,1,0,.6Z" fill="#dfbe6a"/>
          </g>
        </g>
      </g>
    </g>
    <g id="Grupo_22" data-name="Grupo 22">
      <path id="Trazado_14" data-name="Trazado 14" d="M23.4,16h-2a6.018,6.018,0,0,0-6-6V8A8.024,8.024,0,0,1,23.4,16Z" fill="#dfbe6a"/>
    </g>
    <g id="Grupo_23" data-name="Grupo 23">
      <path id="Trazado_15" data-name="Trazado 15" d="M27.4,16h-2a10.029,10.029,0,0,0-10-10V4A12.035,12.035,0,0,1,27.4,16Z" fill="#dfbe6a"/>
    </g>
    <g id="Grupo_24" data-name="Grupo 24">
      <path id="Trazado_16" data-name="Trazado 16" d="M31.4,16h-2a14.041,14.041,0,0,0-14-14V0A16.047,16.047,0,0,1,31.4,16Z" fill="#dfbe6a"/>
    </g>
  </g>
</svg>
