<svg xmlns="http://www.w3.org/2000/svg" width="78.059" height="22.73" viewBox="0 0 78.059 22.73">
  <g id="Grupo_148" data-name="Grupo 148" transform="translate(-663.038 -264.472)">
    <g id="Grupo_145" data-name="Grupo 145" transform="translate(660.288 261.722)">
      <g id="Grupo_128" data-name="Grupo 128" transform="translate(3.5 3.519)">
        <path id="Trazado_62_3_" d="M24.73,82.828V80.172a5.3,5.3,0,0,0-2.151-4.265,4.815,4.815,0,0,0-4.115-.767,16.891,16.891,0,0,1-8.642,0,4.844,4.844,0,0,0-4.078.692,6.193,6.193,0,0,0-.673.58A5.3,5.3,0,0,0,3.5,80.172v2.656" transform="translate(-3.5 -61.617)" fill="none" stroke="#dfbe6a" stroke-linecap="round" stroke-linejoin="round" stroke-width="1.5"/>
        <path id="Trazado_63_3_" d="M42.505,8.893A5.3,5.3,0,1,1,37.193,3.6,5.308,5.308,0,0,1,42.505,8.893Z" transform="translate(-26.588 -3.6)" fill="none" stroke="#dfbe6a" stroke-linecap="round" stroke-linejoin="round" stroke-width="1.5"/>
      </g>
      <g id="Grupo_129" data-name="Grupo 129" transform="translate(22.148 3.5)">
        <path id="Trazado_62_2_" d="M115.545,49.682V48.148a3.082,3.082,0,0,0-1.253-2.488,2.872,2.872,0,0,0-2.394-.449,10.022,10.022,0,0,1-2.619.337,9.435,9.435,0,0,1-2.413-.318,2.888,2.888,0,0,0-2.375.393,3.143,3.143,0,0,0-.393.337,3.065,3.065,0,0,0-.9,2.188v.412" transform="translate(-103.2 -37.337)" fill="none" stroke="#dfbe6a" stroke-linecap="round" stroke-linejoin="round" stroke-width="1.5"/>
        <path id="Trazado_63_2_" d="M125.872,6.586A3.086,3.086,0,1,1,122.786,3.5,3.089,3.089,0,0,1,125.872,6.586Z" transform="translate(-116.614 -3.5)" fill="none" stroke="#dfbe6a" stroke-linecap="round" stroke-linejoin="round" stroke-width="1.5"/>
      </g>
    </g>
    <path id="Trazado_114" data-name="Trazado 114" d="M1.19-9.214a2.9,2.9,0,0,1,.476-1.615A3.315,3.315,0,0,1,3.086-12a5.315,5.315,0,0,1,2.27-.442A5.315,5.315,0,0,1,7.625-12a3.375,3.375,0,0,1,1.428,1.173,2.862,2.862,0,0,1,.484,1.615,2.815,2.815,0,0,1-.518,1.7A2.915,2.915,0,0,1,7.48-6.477,3.438,3.438,0,0,1,9.231-5.329,3.057,3.057,0,0,1,9.843-3.4,3.277,3.277,0,0,1,8.6-.672,5.1,5.1,0,0,1,5.355.306,5.059,5.059,0,0,1,2.116-.672,3.286,3.286,0,0,1,.884-3.4,3.057,3.057,0,0,1,1.5-5.329,3.438,3.438,0,0,1,3.247-6.477,2.915,2.915,0,0,1,1.709-7.514,2.815,2.815,0,0,1,1.19-9.214Zm1.921.306a1.742,1.742,0,0,0,.6,1.42,2.489,2.489,0,0,0,1.641.5A2.524,2.524,0,0,0,7-7.488a1.732,1.732,0,0,0,.612-1.42A1.746,1.746,0,0,0,7-10.336a2.5,2.5,0,0,0-1.641-.51,2.468,2.468,0,0,0-1.632.51A1.756,1.756,0,0,0,3.111-8.908ZM2.771-3.5a2.007,2.007,0,0,0,.7,1.624,2.838,2.838,0,0,0,1.887.587,2.838,2.838,0,0,0,1.887-.587,2.007,2.007,0,0,0,.7-1.624,1.853,1.853,0,0,0-.723-1.589,3.046,3.046,0,0,0-1.861-.536A3.02,3.02,0,0,0,3.5-5.083,1.849,1.849,0,0,0,2.771-3.5ZM18.853-6.97v1.632h-7V-6.97ZM22.1-10.183V-12h3.842V0H23.9V-10.183Zm7.157,4.1a8.428,8.428,0,0,0,1.02,4.5,3.7,3.7,0,0,0,3.4,1.624,3.7,3.7,0,0,0,3.4-1.632A8.436,8.436,0,0,0,38.1-6.086a8.352,8.352,0,0,0-1.02-4.463,3.7,3.7,0,0,0-3.4-1.623,3.709,3.709,0,0,0-3.4,1.615A8.344,8.344,0,0,0,29.257-6.086Zm6.9,0a7.828,7.828,0,0,1-.51,3.179A1.96,1.96,0,0,1,33.677-1.8a1.975,1.975,0,0,1-1.989-1.105,7.828,7.828,0,0,1-.51-3.179,7.648,7.648,0,0,1,.51-3.145,1.98,1.98,0,0,1,1.989-1.088,1.963,1.963,0,0,1,1.972,1.1A7.657,7.657,0,0,1,36.159-6.086Z" transform="translate(703 282)" fill="#dfbe6a"/>
  </g>
</svg>
