<svg xmlns="http://www.w3.org/2000/svg" width="71.548" height="22.73" viewBox="0 0 71.548 22.73">
  <g id="Grupo_147" data-name="Grupo 147" transform="translate(-663.038 -319.472)">
    <g id="Grupo_146" data-name="Grupo 146" transform="translate(660.288 316.722)">
      <g id="Grupo_128" data-name="Grupo 128" transform="translate(3.5 3.519)">
        <path id="Trazado_62_3_" d="M24.73,82.828V80.172a5.3,5.3,0,0,0-2.151-4.265,4.815,4.815,0,0,0-4.115-.767,16.891,16.891,0,0,1-8.642,0,4.844,4.844,0,0,0-4.078.692,6.193,6.193,0,0,0-.673.58A5.3,5.3,0,0,0,3.5,80.172v2.656" transform="translate(-3.5 -61.617)" fill="none" stroke="#dfbe6a" stroke-linecap="round" stroke-linejoin="round" stroke-width="1.5"/>
        <path id="Trazado_63_3_" d="M42.505,8.893A5.3,5.3,0,1,1,37.193,3.6,5.308,5.308,0,0,1,42.505,8.893Z" transform="translate(-26.588 -3.6)" fill="none" stroke="#dfbe6a" stroke-linecap="round" stroke-linejoin="round" stroke-width="1.5"/>
      </g>
      <g id="Grupo_129" data-name="Grupo 129" transform="translate(22.148 3.5)">
        <path id="Trazado_62_2_" d="M115.545,49.682V48.148a3.082,3.082,0,0,0-1.253-2.488,2.872,2.872,0,0,0-2.394-.449,10.022,10.022,0,0,1-2.619.337,9.435,9.435,0,0,1-2.413-.318,2.888,2.888,0,0,0-2.375.393,3.143,3.143,0,0,0-.393.337,3.065,3.065,0,0,0-.9,2.188v.412" transform="translate(-103.2 -37.337)" fill="none" stroke="#dfbe6a" stroke-linecap="round" stroke-linejoin="round" stroke-width="1.5"/>
        <path id="Trazado_63_2_" d="M125.872,6.586A3.086,3.086,0,1,1,122.786,3.5,3.089,3.089,0,0,1,125.872,6.586Z" transform="translate(-116.614 -3.5)" fill="none" stroke="#dfbe6a" stroke-linecap="round" stroke-linejoin="round" stroke-width="1.5"/>
      </g>
    </g>
    <path id="Trazado_115" data-name="Trazado 115" d="M7.463-8.772q-.306-2.006-2.091-2.006A2.138,2.138,0,0,0,3.434-9.749a6.223,6.223,0,0,0-.646,3.221l.017.578A2.485,2.485,0,0,1,3.91-7.412a3.64,3.64,0,0,1,2.006-.544A3.642,3.642,0,0,1,8.687-6.9a4.145,4.145,0,0,1,1,2.975,4.521,4.521,0,0,1-.459,2.066A3.448,3.448,0,0,1,7.854-.417,4.422,4.422,0,0,1,5.593.119q-2.6,0-3.57-1.615a8.62,8.62,0,0,1-.969-4.437,8.989,8.989,0,0,1,1.037-4.828,3.747,3.747,0,0,1,3.4-1.6,3.543,3.543,0,0,1,2.711,1A4.245,4.245,0,0,1,9.3-8.772ZM2.975-4.148A2.7,2.7,0,0,0,3.621-2.3a2.393,2.393,0,0,0,1.9.739,2.326,2.326,0,0,0,1.709-.629,2.349,2.349,0,0,0,.637-1.751A2.508,2.508,0,0,0,7.225-5.8a2.366,2.366,0,0,0-1.751-.646,2.73,2.73,0,0,0-1.751.6A2.046,2.046,0,0,0,2.975-4.148ZM18.717-6.97v1.632h-7V-6.97Zm4.216-2.244a2.9,2.9,0,0,1,.476-1.615A3.315,3.315,0,0,1,24.829-12a5.315,5.315,0,0,1,2.269-.442,5.315,5.315,0,0,1,2.27.442A3.375,3.375,0,0,1,30.8-10.829a2.862,2.862,0,0,1,.484,1.615,2.815,2.815,0,0,1-.518,1.7,2.915,2.915,0,0,1-1.539,1.037,3.438,3.438,0,0,1,1.751,1.148A3.057,3.057,0,0,1,31.586-3.4,3.277,3.277,0,0,1,30.345-.672,5.1,5.1,0,0,1,27.1.306,5.059,5.059,0,0,1,23.86-.672,3.286,3.286,0,0,1,22.627-3.4a3.057,3.057,0,0,1,.612-1.929A3.438,3.438,0,0,1,24.99-6.477a2.915,2.915,0,0,1-1.538-1.037A2.815,2.815,0,0,1,22.933-9.214Zm1.921.306a1.742,1.742,0,0,0,.6,1.42,2.489,2.489,0,0,0,1.64.5,2.524,2.524,0,0,0,1.649-.5,1.731,1.731,0,0,0,.612-1.42,1.746,1.746,0,0,0-.621-1.428,2.5,2.5,0,0,0-1.641-.51,2.468,2.468,0,0,0-1.632.51A1.756,1.756,0,0,0,24.854-8.908ZM24.514-3.5a2.007,2.007,0,0,0,.7,1.624,2.838,2.838,0,0,0,1.887.587,2.838,2.838,0,0,0,1.887-.587,2.007,2.007,0,0,0,.7-1.624,1.853,1.853,0,0,0-.722-1.589A3.046,3.046,0,0,0,27.1-5.627a3.02,3.02,0,0,0-1.853.544A1.849,1.849,0,0,0,24.514-3.5Z" transform="translate(703 337)" fill="#dfbe6a"/>
  </g>
</svg>
