<svg xmlns="http://www.w3.org/2000/svg" width="48.972" height="22.73" viewBox="0 0 48.972 22.73">
  <g id="Grupo_150" data-name="Grupo 150" transform="translate(-663.038 -149.472)">
    <g id="Grupo_143" data-name="Grupo 143" transform="translate(660.288 146.722)">
      <g id="Grupo_128" data-name="Grupo 128" transform="translate(3.5 3.519)">
        <path id="Trazado_62_3_" d="M24.73,82.828V80.172a5.3,5.3,0,0,0-2.151-4.265,4.815,4.815,0,0,0-4.115-.767,16.891,16.891,0,0,1-8.642,0,4.844,4.844,0,0,0-4.078.692,6.193,6.193,0,0,0-.673.58A5.3,5.3,0,0,0,3.5,80.172v2.656" transform="translate(-3.5 -61.617)" fill="none" stroke="#dfbe6a" stroke-linecap="round" stroke-linejoin="round" stroke-width="1.5"/>
        <path id="Trazado_63_3_" d="M42.505,8.893A5.3,5.3,0,1,1,37.193,3.6,5.308,5.308,0,0,1,42.505,8.893Z" transform="translate(-26.588 -3.6)" fill="none" stroke="#dfbe6a" stroke-linecap="round" stroke-linejoin="round" stroke-width="1.5"/>
      </g>
      <g id="Grupo_129" data-name="Grupo 129" transform="translate(22.148 3.5)">
        <path id="Trazado_62_2_" d="M115.545,49.682V48.148a3.082,3.082,0,0,0-1.253-2.488,2.872,2.872,0,0,0-2.394-.449,10.022,10.022,0,0,1-2.619.337,9.435,9.435,0,0,1-2.413-.318,2.888,2.888,0,0,0-2.375.393,3.143,3.143,0,0,0-.393.337,3.065,3.065,0,0,0-.9,2.188v.412" transform="translate(-103.2 -37.337)" fill="none" stroke="#dfbe6a" stroke-linecap="round" stroke-linejoin="round" stroke-width="1.5"/>
        <path id="Trazado_63_2_" d="M125.872,6.586A3.086,3.086,0,1,1,122.786,3.5,3.089,3.089,0,0,1,125.872,6.586Z" transform="translate(-116.614 -3.5)" fill="none" stroke="#dfbe6a" stroke-linecap="round" stroke-linejoin="round" stroke-width="1.5"/>
      </g>
    </g>
    <path id="Trazado_113" data-name="Trazado 113" d="M.68-1.513a25.584,25.584,0,0,0,4.411-3.7A5.209,5.209,0,0,0,6.749-8.568,2.221,2.221,0,0,0,6.3-10.03a1.784,1.784,0,0,0-1.454-.544A1.867,1.867,0,0,0,3.281-9.9a3.345,3.345,0,0,0-.6,1.913H.8a4.509,4.509,0,0,1,1.267-3.145A4.09,4.09,0,0,1,5-12.223a3.871,3.871,0,0,1,2.746.926,3.325,3.325,0,0,1,.994,2.559,5.123,5.123,0,0,1-.807,2.652A11.042,11.042,0,0,1,5.882-3.613,17.217,17.217,0,0,1,3.315-1.666H9.01V-.085H.68Z" transform="translate(703 167)" fill="#dfbe6a"/>
  </g>
</svg>
