<svg xmlns="http://www.w3.org/2000/svg" width="71.599" height="22.73" viewBox="0 0 71.599 22.73">
  <g id="Grupo_149" data-name="Grupo 149" transform="translate(-663.038 -204.472)">
    <g id="Grupo_144" data-name="Grupo 144" transform="translate(660.288 201.722)">
      <g id="Grupo_128" data-name="Grupo 128" transform="translate(3.5 3.519)">
        <path id="Trazado_62_3_" d="M24.73,82.828V80.172a5.3,5.3,0,0,0-2.151-4.265,4.815,4.815,0,0,0-4.115-.767,16.891,16.891,0,0,1-8.642,0,4.844,4.844,0,0,0-4.078.692,6.193,6.193,0,0,0-.673.58A5.3,5.3,0,0,0,3.5,80.172v2.656" transform="translate(-3.5 -61.617)" fill="none" stroke="#dfbe6a" stroke-linecap="round" stroke-linejoin="round" stroke-width="1.5"/>
        <path id="Trazado_63_3_" d="M42.505,8.893A5.3,5.3,0,1,1,37.193,3.6,5.308,5.308,0,0,1,42.505,8.893Z" transform="translate(-26.588 -3.6)" fill="none" stroke="#dfbe6a" stroke-linecap="round" stroke-linejoin="round" stroke-width="1.5"/>
      </g>
      <g id="Grupo_129" data-name="Grupo 129" transform="translate(22.148 3.5)">
        <path id="Trazado_62_2_" d="M115.545,49.682V48.148a3.082,3.082,0,0,0-1.253-2.488,2.872,2.872,0,0,0-2.394-.449,10.022,10.022,0,0,1-2.619.337,9.435,9.435,0,0,1-2.413-.318,2.888,2.888,0,0,0-2.375.393,3.143,3.143,0,0,0-.393.337,3.065,3.065,0,0,0-.9,2.188v.412" transform="translate(-103.2 -37.337)" fill="none" stroke="#dfbe6a" stroke-linecap="round" stroke-linejoin="round" stroke-width="1.5"/>
        <path id="Trazado_63_2_" d="M125.872,6.586A3.086,3.086,0,1,1,122.786,3.5,3.089,3.089,0,0,1,125.872,6.586Z" transform="translate(-116.614 -3.5)" fill="none" stroke="#dfbe6a" stroke-linecap="round" stroke-linejoin="round" stroke-width="1.5"/>
      </g>
    </g>
    <path id="Trazado_112" data-name="Trazado 112" d="M.6-2.584V-4.216L6.562-12.1H8.636v7.82h1.683v1.7H8.636V0H6.681V-2.584ZM6.817-9.792,2.6-4.284H6.817Zm12.1,2.822v1.632h-7V-6.97Zm10.489-1.8q-.306-2.006-2.091-2.006a2.138,2.138,0,0,0-1.938,1.029,6.223,6.223,0,0,0-.646,3.221l.017.578a2.485,2.485,0,0,1,1.1-1.462,3.64,3.64,0,0,1,2.006-.544A3.642,3.642,0,0,1,30.634-6.9a4.145,4.145,0,0,1,1,2.975,4.521,4.521,0,0,1-.459,2.066A3.448,3.448,0,0,1,29.8-.417,4.422,4.422,0,0,1,27.54.119q-2.6,0-3.57-1.615A8.62,8.62,0,0,1,23-5.933a8.989,8.989,0,0,1,1.037-4.828,3.747,3.747,0,0,1,3.4-1.6,3.543,3.543,0,0,1,2.712,1,4.245,4.245,0,0,1,1.1,2.584ZM24.922-4.148A2.7,2.7,0,0,0,25.568-2.3a2.393,2.393,0,0,0,1.9.739,2.326,2.326,0,0,0,1.708-.629,2.349,2.349,0,0,0,.638-1.751A2.508,2.508,0,0,0,29.172-5.8a2.366,2.366,0,0,0-1.751-.646,2.73,2.73,0,0,0-1.751.6A2.046,2.046,0,0,0,24.922-4.148Z" transform="translate(703 222)" fill="#dfbe6a"/>
  </g>
</svg>
