<svg xmlns="http://www.w3.org/2000/svg" width="53" height="53" viewBox="0 0 53 53"><g transform="translate(-1525 -823)"><path d="M10,7.112a5.13,5.13,0,1,0,5.13,5.13A5.122,5.122,0,0,0,10,7.112Zm0,8.465a3.335,3.335,0,1,1,3.335-3.335A3.341,3.341,0,0,1,10,15.577ZM16.54,6.9a1.2,1.2,0,1,1-1.2-1.2A1.194,1.194,0,0,1,16.54,6.9Zm3.4,1.214a5.922,5.922,0,0,0-1.616-4.192,5.96,5.96,0,0,0-4.192-1.616c-1.652-.094-6.6-.094-8.255,0A5.952,5.952,0,0,0,1.681,3.92,5.941,5.941,0,0,0,.065,8.112c-.094,1.652-.094,6.6,0,8.255A5.922,5.922,0,0,0,1.681,20.56a5.968,5.968,0,0,0,4.192,1.616c1.652.094,6.6.094,8.255,0a5.921,5.921,0,0,0,4.192-1.616,5.96,5.96,0,0,0,1.616-4.192c.094-1.652.094-6.6,0-8.251ZM17.8,18.14a3.377,3.377,0,0,1-1.9,1.9c-1.317.522-4.442.4-5.9.4s-4.585.116-5.9-.4a3.377,3.377,0,0,1-1.9-1.9c-.522-1.317-.4-4.442-.4-5.9s-.116-4.585.4-5.9a3.377,3.377,0,0,1,1.9-1.9c1.317-.522,4.442-.4,5.9-.4s4.585-.116,5.9.4a3.377,3.377,0,0,1,1.9,1.9c.522,1.317.4,4.442.4,5.9S18.326,16.828,17.8,18.14Z" transform="translate(1541.49 837.441)" fill="#dfbe6a"/><g transform="translate(1525 823)" fill="none" stroke="#dfbe6a" stroke-width="1"><circle cx="26.5" cy="26.5" r="26.5" stroke="none"/><circle cx="26.5" cy="26.5" r="26" fill="none"/></g></g></svg>