<svg xmlns="http://www.w3.org/2000/svg" width="53" height="53" viewBox="0 0 53 53"><g transform="translate(-1593 -823)"><path d="M25.977,6.868a10.188,10.188,0,0,1-2.894.8A5.057,5.057,0,0,0,25.3,4.875,10.014,10.014,0,0,1,22.1,6.1,5.038,5.038,0,0,0,13.38,9.544a4.934,4.934,0,0,0,.13,1.15A14.282,14.282,0,0,1,3.121,5.421a5.049,5.049,0,0,0,1.567,6.736,4.922,4.922,0,0,1-2.29-.63v.062a5.044,5.044,0,0,0,4.044,4.945,5.073,5.073,0,0,1-1.327.177,4.754,4.754,0,0,1-.947-.094,5.047,5.047,0,0,0,4.711,3.5,10.1,10.1,0,0,1-6.262,2.16,10.215,10.215,0,0,1-1.2-.073,14.086,14.086,0,0,0,7.714,2.28A14.253,14.253,0,0,0,23.478,10.132c0-.219-.005-.437-.016-.651A10.259,10.259,0,0,0,25.977,6.868Z" transform="translate(1606.615 835.1)" fill="#dfbe6a"/><g transform="translate(1593 823)" fill="none" stroke="#dfbe6a" stroke-width="1"><circle cx="26.5" cy="26.5" r="26.5" stroke="none"/><circle cx="26.5" cy="26.5" r="26" fill="none"/></g></g></svg>