<svg xmlns="http://www.w3.org/2000/svg" width="53" height="53" viewBox="0 0 53 53"><g transform="translate(-1658 -823)"><path d="M18.158,5.353A10.586,10.586,0,0,0,1.5,18.124L0,23.607l5.611-1.473a10.551,10.551,0,0,0,5.058,1.287h0A10.685,10.685,0,0,0,21.357,12.838a10.625,10.625,0,0,0-3.2-7.484ZM10.674,21.638a8.781,8.781,0,0,1-4.481-1.225l-.319-.191-3.327.872.887-3.246-.21-.334a8.813,8.813,0,1,1,16.346-4.677A8.894,8.894,0,0,1,10.674,21.638ZM15.5,15.05c-.262-.133-1.564-.772-1.807-.858s-.42-.133-.6.133-.682.858-.839,1.039-.31.2-.572.067a7.2,7.2,0,0,1-3.6-3.146c-.272-.467.272-.434.777-1.444a.49.49,0,0,0-.024-.462c-.067-.133-.6-1.435-.815-1.964s-.434-.443-.6-.453-.329-.01-.505-.01a.98.98,0,0,0-.706.329,2.971,2.971,0,0,0-.925,2.207,5.18,5.18,0,0,0,1.077,2.736,11.817,11.817,0,0,0,4.519,3.995,5.174,5.174,0,0,0,3.175.663,2.708,2.708,0,0,0,1.783-1.259A2.212,2.212,0,0,0,16,15.364C15.936,15.245,15.76,15.178,15.5,15.05Z" transform="translate(1674.114 836.75)" fill="#dfbe6a"/><g transform="translate(1658 823)" fill="none" stroke="#dfbe6a" stroke-width="1"><circle cx="26.5" cy="26.5" r="26.5" stroke="none"/><circle cx="26.5" cy="26.5" r="26" fill="none"/></g></g></svg>